<svg xmlns="http://www.w3.org/2000/svg" xmlns:xlink="http://www.w3.org/1999/xlink" style="display:none">
  <defs>
    <linearGradient id="g-purple" x1="0" y1="0" x2="1" y2="1"><stop offset="0" stop-color="#b388ff"/><stop offset="1" stop-color="#5c2d91"/></linearGradient>
    <linearGradient id="g-blue" x1="0" y1="0" x2="1" y2="1"><stop offset="0" stop-color="#7ecbff"/><stop offset="1" stop-color="#1e5aa8"/></linearGradient>
    <linearGradient id="g-gold" x1="0" y1="0" x2="1" y2="1"><stop offset="0" stop-color="#ffe08a"/><stop offset="1" stop-color="#c78b00"/></linearGradient>
    <linearGradient id="g-green" x1="0" y1="0" x2="1" y2="1"><stop offset="0" stop-color="#7dffb3"/><stop offset="1" stop-color="#1e7a4a"/></linearGradient>
    <linearGradient id="g-red" x1="0" y1="0" x2="1" y2="1"><stop offset="0" stop-color="#ff8a8a"/><stop offset="1" stop-color="#a61e1e"/></linearGradient>
    <linearGradient id="g-teal" x1="0" y1="0" x2="1" y2="1"><stop offset="0" stop-color="#7fffd4"/><stop offset="1" stop-color="#0d6e6e"/></linearGradient>
  </defs>

  <!-- Passifs -->
  <symbol id="passive-sword" viewBox="0 0 32 32"><path fill="#c8d4e8" d="M8 22l14-14 2 2-14 14-4 2 2-4z"/><path fill="#8a9bb5" d="M20 8l4 4-2 2-4-4z"/></symbol>
  <symbol id="passive-red_claw" viewBox="0 0 32 32"><path fill="none" stroke="#e85555" stroke-width="2.5" stroke-linecap="round" d="M6 22l8-14M12 24l6-16M18 24l4-12"/></symbol>
  <symbol id="passive-yellow_bolt" viewBox="0 0 32 32"><path fill="#ffe566" d="M18 4L8 18h6l-2 10 12-16h-7l3-8z"/></symbol>
  <symbol id="passive-winged_boot" viewBox="0 0 32 32"><path fill="#9b7bd6" d="M8 20h12v6H8z"/><path fill="#c4a8ff" d="M6 14c4-4 10-4 14 0l-2 6H8l-2-6z"/><path fill="#e8ddff" d="M20 12l8-4-2 8-6-2z"/></symbol>
  <symbol id="passive-clock" viewBox="0 0 32 32"><circle cx="16" cy="16" r="11" fill="#dfe6ef" stroke="#8a9bb5" stroke-width="2"/><path stroke="#4a5a70" stroke-width="2" stroke-linecap="round" d="M16 10v7l5 3"/></symbol>
  <symbol id="passive-silver_armor" viewBox="0 0 32 32"><path fill="#d0d8e4" d="M10 8h12l2 6-2 14H10L8 14l2-6z"/><path fill="#9aa8bc" d="M12 12h8v6h-8z"/></symbol>
  <symbol id="passive-pink_heart" viewBox="0 0 32 32"><path fill="#ff7eb3" d="M16 26S6 18 6 12a5 5 0 0 1 10-1 5 5 0 0 1 10 1c0 6-10 14-10 14z"/></symbol>
  <symbol id="passive-hourglass" viewBox="0 0 32 32"><path fill="#eef3f8" stroke="#9aa8bc" stroke-width="1.5" d="M9 6h14v4l-7 6 7 6v4H9v-4l7-6-7-6V6z"/></symbol>
  <symbol id="passive-green_arrow" viewBox="0 0 32 32"><path fill="#5ddf7a" d="M16 4l10 10h-6v14H12V14H6L16 4z"/></symbol>

  <!-- Sorts de base -->
  <symbol id="skill-purple_bat" viewBox="0 0 32 32"><ellipse cx="16" cy="18" rx="10" ry="7" fill="url(#g-purple)"/><path fill="#2a1845" d="M8 14c-4-2-4-6 0-6 2 0 3 2 3 4"/><circle cx="20" cy="16" r="2" fill="#fff"/></symbol>
  <symbol id="skill-blue_lightning" viewBox="0 0 32 32"><path fill="url(#g-blue)" d="M20 2L10 16h6l-4 14 14-16h-8l2-12z"/></symbol>
  <symbol id="skill-gold_crown" viewBox="0 0 32 32"><path fill="url(#g-gold)" d="M6 22l4-12 4 8 4-10 4 8 4-8 4 12H6z"/></symbol>
  <symbol id="skill-blue_swirl" viewBox="0 0 32 32"><circle cx="16" cy="16" r="10" fill="none" stroke="url(#g-blue)" stroke-width="3"/><circle cx="12" cy="14" r="4" fill="none" stroke="#7ecbff" stroke-width="2"/></symbol>
  <symbol id="skill-binding_chain" viewBox="0 0 32 32"><path fill="#c9a227" d="M2 2h28v28H2z"/><path stroke="#b24cf0" stroke-width="2.5" fill="none" d="M8 22c6-8 10-8 16 0"/><path stroke="#b24cf0" stroke-width="2.5" fill="none" d="M10 20c4-6 8-6 12 0"/><path fill="#4a4a55" d="M20 6l6 4-3 5-5-3z"/><circle cx="12" cy="14" r="2" fill="#f0a0d0"/><circle cx="18" cy="18" r="2" fill="#f0a0d0"/></symbol>
  <symbol id="skill-purple_ghost" viewBox="0 0 32 32"><path fill="url(#g-purple)" d="M10 8c6-4 12 0 12 8v10l-3-2-3 2-3-2-3 2V16c0-4-2-6-3-8z"/></symbol>
  <symbol id="skill-silver_shield" viewBox="0 0 32 32"><path fill="#c8d4e8" stroke="#8a9bb5" stroke-width="1.5" d="M16 4l10 4v10c0 8-10 12-10 12S6 26 6 18V8l10-4z"/></symbol>
  <symbol id="skill-pink_fire" viewBox="0 0 32 32"><path fill="#ff7eb3" d="M16 4c4 6 2 10-2 14 4-2 8 2 4 10-6-4-8-10-2-24z"/></symbol>
  <symbol id="skill-black_bomb" viewBox="0 0 32 32"><circle cx="16" cy="18" r="9" fill="#222"/><path fill="#444" d="M14 6h4v6h-4z"/><path fill="#ffcc00" d="M16 4l2 4h-4z"/></symbol>
  <symbol id="skill-pink_orb" viewBox="0 0 32 32"><circle cx="16" cy="16" r="10" fill="#ff9ed1"/><circle cx="12" cy="14" r="3" fill="#fff" opacity=".5"/></symbol>
  <symbol id="skill-purple_shard" viewBox="0 0 32 32"><path fill="url(#g-purple)" d="M16 4l10 22H6L16 4z"/><path fill="#fff" opacity=".25" d="M16 8l4 14h-8z"/></symbol>
  <symbol id="skill-water_drop" viewBox="0 0 32 32"><path fill="url(#g-blue)" d="M16 4c6 8 10 12 10 16a10 10 0 1 1-20 0c0-4 4-8 10-16z"/></symbol>
  <symbol id="skill-yellow_sun" viewBox="0 0 32 32"><circle cx="16" cy="16" r="7" fill="url(#g-gold)"/><path fill="#ffe566" d="M16 2v4M16 26v4M2 16h4M26 16h4M5 5l3 3M24 24l3 3M27 5l-3 3M8 24l-3 3" stroke="#c78b00" stroke-width="2"/></symbol>
  <symbol id="skill-silver_star" viewBox="0 0 32 32"><path fill="#e0e8f2" d="M16 4l3 8 8 1-6 5 2 8-7-4-7 4 2-8-6-5 8-1z"/></symbol>
  <symbol id="skill-blue_bubble" viewBox="0 0 32 32"><circle cx="14" cy="16" r="7" fill="#9fd6ff"/><circle cx="20" cy="18" r="5" fill="#6ebfff"/></symbol>
  <symbol id="skill-orange_fire" viewBox="0 0 32 32"><path fill="#ff9a3c" d="M16 4c6 8 8 12 4 18 4-2 6 4 2 10-8-2-10-14-6-28z"/></symbol>

  <!-- EVO -->
  <symbol id="evo-red_bat" viewBox="0 0 32 32"><ellipse cx="16" cy="18" rx="10" ry="7" fill="url(#g-red)"/><circle cx="20" cy="16" r="2" fill="#fff"/></symbol>
  <symbol id="evo-heavy_yellow_bolt" viewBox="0 0 32 32"><path fill="#ffe566" stroke="#c78b00" stroke-width="1" d="M22 2L10 18h7l-5 12 14-18h-9l5-10z"/></symbol>
  <symbol id="evo-spiked_gold_crown" viewBox="0 0 32 32"><path fill="url(#g-gold)" d="M6 22l4-12 4 8 4-10 4 8 4-8 4 12H6z"/><path fill="#e85555" d="M10 10h2v4h-2zm6-2h2v6h-2zm6 0h2v5h-2z"/></symbol>
  <symbol id="evo-yellow_swirl" viewBox="0 0 32 32"><circle cx="16" cy="16" r="10" fill="none" stroke="#ffe566" stroke-width="3"/><circle cx="18" cy="14" r="4" fill="none" stroke="#c78b00" stroke-width="2"/></symbol>
  <symbol id="evo-green_eye" viewBox="0 0 32 32"><ellipse cx="16" cy="16" rx="12" ry="8" fill="url(#g-green)"/><ellipse cx="16" cy="16" rx="5" ry="5" fill="#0d3d28"/><circle cx="17" cy="15" r="1.5" fill="#fff"/></symbol>
  <symbol id="evo-teal_ghost" viewBox="0 0 32 32"><path fill="url(#g-teal)" d="M10 8c6-4 12 0 12 8v10l-3-2-3 2-3-2-3 2V16c0-4-2-6-3-8z"/></symbol>
  <symbol id="evo-winged_purple_armor" viewBox="0 0 32 32"><path fill="#9b7bd6" d="M10 8h12l2 8-2 12H10L8 16l2-8z"/><path fill="#c4a8ff" d="M6 12l4 4-2 6-4-4zM26 12l-4 4 2 6 4-4z"/></symbol>
  <symbol id="evo-blue_fire" viewBox="0 0 32 32"><path fill="url(#g-blue)" d="M16 4c4 6 2 10-2 14 4-2 8 2 4 10-6-4-8-10-2-24z"/></symbol>
  <symbol id="evo-pink_bomb" viewBox="0 0 32 32"><circle cx="16" cy="18" r="9" fill="#ff7eb3"/><path fill="#444" d="M14 6h4v6h-4z"/></symbol>
  <symbol id="evo-red_orb" viewBox="0 0 32 32"><circle cx="16" cy="16" r="10" fill="#ff5555"/><circle cx="12" cy="14" r="3" fill="#fff" opacity=".4"/></symbol>
  <symbol id="evo-blue_shard" viewBox="0 0 32 32"><path fill="url(#g-blue)" d="M16 4l10 22H6L16 4z"/></symbol>
  <symbol id="evo-teal_drop" viewBox="0 0 32 32"><path fill="url(#g-teal)" d="M16 4c6 8 10 12 10 16a10 10 0 1 1-20 0c0-4 4-8 10-16z"/></symbol>
  <symbol id="evo-orange_sun" viewBox="0 0 32 32"><circle cx="16" cy="16" r="7" fill="#ff9a3c"/><path fill="#c75a00" d="M16 2v4M16 26v4M2 16h4M26 16h4" stroke="#c75a00" stroke-width="2"/></symbol>
  <symbol id="evo-blue_shuriken" viewBox="0 0 32 32"><path fill="#7ecbff" d="M16 4l3 10 10 2-10 2-3 10-3-10-10-2 10-2z"/></symbol>
  <symbol id="evo-ice_crystal" viewBox="0 0 32 32"><path fill="#dff6ff" stroke="#7ecbff" stroke-width="1" d="M16 4l3 10h10l-8 6 3 10-8-6-8 6 3-10-8-6h10z"/></symbol>
  <symbol id="evo-time_orb" viewBox="0 0 32 32"><circle cx="16" cy="16" r="11" fill="url(#g-blue)"/><circle cx="16" cy="16" r="7" fill="#123"/><path stroke="#dff6ff" stroke-width="1.5" stroke-linecap="round" d="M16 12v5l4 2"/></symbol>

  <!-- Mythiques -->
  <symbol id="mythic-purple_crystal_cluster" viewBox="0 0 32 32"><path fill="#b388ff" d="M10 22l6-16 6 16H10z"/><path fill="#dff6ff" d="M6 18h8l-2 8H6zM18 18h8l-2 8h-6z"/></symbol>
  <symbol id="mythic-teal_trident" viewBox="0 0 32 32"><path fill="url(#g-teal)" d="M16 4v22M10 8h12M8 8l-2-4M16 8l0-4M24 8l2-4"/></symbol>
  <symbol id="mythic-green_smiling_face" viewBox="0 0 32 32"><circle cx="16" cy="16" r="12" fill="url(#g-green)"/><circle cx="12" cy="13" r="2" fill="#0d3d28"/><circle cx="20" cy="13" r="2" fill="#0d3d28"/><path fill="none" stroke="#0d3d28" stroke-width="2" stroke-linecap="round" d="M11 20c2 3 8 3 10 0"/></symbol>
  <symbol id="mythic-blue_energy_pillar" viewBox="0 0 32 32"><rect x="12" y="4" width="8" height="24" rx="2" fill="url(#g-blue)"/><rect x="10" y="8" width="12" height="4" fill="#dff6ff" opacity=".5"/></symbol>
  <symbol id="mythic-gold_plasma_core" viewBox="0 0 32 32"><circle cx="16" cy="16" r="10" fill="url(#g-gold)"/><path fill="none" stroke="#c78b00" stroke-width="2" d="M16 8v16M8 16h16"/></symbol>
  <symbol id="mythic-spirit_bind" viewBox="0 0 32 32"><path fill="none" stroke="url(#g-teal)" stroke-width="2" d="M8 16c4-8 12-8 16 0M8 16c4 8 12 8 16 0"/><circle cx="16" cy="16" r="4" fill="url(#g-green)"/></symbol>
  <symbol id="mythic-rose_inferno" viewBox="0 0 32 32"><path fill="#ff7eb3" d="M16 4c4 6 2 10-2 14 4-2 8 2 4 10-6-4-8-10-2-24z"/><path fill="url(#g-blue)" d="M16 10c2 4 0 8-4 10 6-2 8 4 4 8-4-6-6-12 0-18z"/></symbol>
  <symbol id="mythic-orb_blade_swarm" viewBox="0 0 32 32"><circle cx="16" cy="16" r="6" fill="url(#g-red)"/><path fill="#7ecbff" d="M16 4l2 8 8 1-6 4 2 7-6-3-6 3 2-7-6-4 8-1z"/></symbol>
  <symbol id="mythic-frost_gaze" viewBox="0 0 32 32"><ellipse cx="16" cy="16" rx="10" ry="7" fill="url(#g-green)"/><path fill="#dff6ff" d="M10 20l6-14 6 14H10z"/></symbol>
  <symbol id="mythic-wraith_dawn" viewBox="0 0 32 32"><path fill="url(#g-teal)" d="M12 22V10h8v12l-4-3-4 3z"/><circle cx="16" cy="8" r="5" fill="#ff9a3c"/></symbol>
  <symbol id="mythic-storm_shuriken" viewBox="0 0 32 32"><path fill="#ffe566" d="M16 4l3 10 10 2-10 2-3 10-3-10-10-2 10-2z"/><path fill="url(#g-blue)" d="M16 10l2 6 6 1-6 1-2 6-2-6-6-1 6-1z"/></symbol>
  <symbol id="mythic-drip_coronet" viewBox="0 0 32 32"><path fill="url(#g-gold)" d="M8 18l4-10 4 6 4-8 4 6 4-10 4 18H8z"/><path fill="url(#g-teal)" d="M14 22h4v6h-4zM18 20h4v8h-4z"/></symbol>
  <symbol id="mythic-blood_swarm" viewBox="0 0 32 32"><circle cx="12" cy="14" r="5" fill="url(#g-red)"/><circle cx="20" cy="18" r="6" fill="#ff7eb3"/></symbol>
  <symbol id="mythic-boom-frog-razor-red" viewBox="0 0 32 32"><circle cx="14" cy="20" r="8" fill="#ff7eb3"/><path fill="url(#g-red)" d="M20 8l2 6h6l-5 4 2 7-5-4-5 4 2-7-5-4h6z"/></symbol>
  <symbol id="mythic-chronos_blue" viewBox="0 0 32 32"><circle cx="16" cy="16" r="9" fill="url(#g-blue)"/><path fill="url(#g-blue)" d="M16 4c4 6 2 10-2 14 4-2 6 2 2 8-4-4-6-10 0-22z"/></symbol>
  <symbol id="mythic-buldak-red" viewBox="0 0 32 32"><circle cx="16" cy="16" r="10" fill="none" stroke="#ffe566" stroke-width="2"/><path fill="#9b7bd6" d="M10 10h12v12H10z" opacity=".7"/></symbol>
  <symbol id="mythic-prism_shell" viewBox="0 0 32 32"><circle cx="16" cy="16" r="9" fill="url(#g-red)"/><path fill="#dff6ff" stroke="#7ecbff" d="M16 8l4 8h8l-6 5 2 9-8-5-8 5 2-9-6-5h8z"/></symbol>
</svg>
